#!OML:ASF F:\VICON\USERDATA\INSTALL\rory3\rory3.ASF
:FULLY-SPECIFIED
:DEGREES
92
root 1.4404016725624775 17.92135402750542 52.98075518033422 -3.378523686680482 1.2291755367690003 -2.7189712847560283
lfemur -12.180196745071337 -3.913342189667993 -20.796572229481477
ltibia 27.889708942394236
lfoot -7.40850517656228 -0.9127316052657584
ltoes -10.612726349931146
rfemur -11.341138728925436 1.1358555795581444 24.165721335534425
rtibia 47.96829698869713
rfoot -4.75186025803387 -9.361172555267318
rtoes 8.193290693333607
lowerback 1.0 -0.2520790429161992 1.512699145227034
upperback -0.045743685518524146 0.5033099831363081 1.5714708497744974
thorax -5.195911613101259 0.27581157239577553 0.14588411285768965
lowerneck -15.77399302365507 -3.329320005106816 -1.4490179150988765
upperneck 23.049132962580938 -4.445840524964244 0.4671769638763506
head 10.129887735992972 -2.0915709164079175 -0.17441588303875466
lclavicle -1.8199503517312234e-15 -1.3261170321009523e-16
lhumerus -31.419570968095627 2.668348182536125 82.24069992771174
lradius 26.66411132767975
lwrist 6.64529986843032
lhand -27.504501999424555 23.4213567317636
lfingers nan
lthumb -0.9442461278360342 53.46152970539217
rclavicle -1.861164581776565e-15 -1.7604384159945436e-16
rhumerus -27.861084426739545 -22.35412530676818 -73.21324079945926
rradius 31.380718802258688
rwrist 1.7512032507618196
rhand -17.978664912799772 1.0
rfingers nan
rthumb 8.35063497468128 -7.933922649451773
93
root 1.46453733679326 17.928134194117103 54.02953599852375 -3.3863875414326907 1.4412776778540366 -1.5297509964878362
lfemur -9.90238376879964 -4.296115478494672 -22.3798527894483
ltibia 26.887642131562654
lfoot -8.206689905754146 -1.257910814878283
ltoes -9.584544813710865
rfemur -13.018778619764136 0.43915044351435206 22.585868663827366
rtibia 50.645070244915004
rfoot -5.49502944929187 -8.67691025215912
rtoes 8.388382814460664
lowerback 1.0 -0.4459578009478422 0.5812772782126137
upperback 0.0009209161057897597 0.07246723899284802 1.398333991150665
thorax -5.2059364812577495 0.06273335317065723 0.5427446478746535
lowerneck -15.8650491228365 -3.3167423043585367 -1.4352946571394505
upperneck 22.876188216789235 -4.430129138668213 0.5726619777537345
head 10.087375835623716 -2.0787570287528494 -0.13039125387413067
lclavicle -1.822546602511511e-15 -1.3347498187055178e-16
lhumerus -30.538621841161795 2.0309874195119777 82.09849434305127
lradius 27.219316741878487
lwrist 6.258971039336924
lhand -27.435560504410063 23.411169183507425
lfingers nan
lthumb -0.8586870593383871 53.481046019525444
rclavicle -1.8653655446906377e-15 -1.7672214706445752e-16
rhumerus -27.864686525644185 -21.921905064409472 -73.70719434356558
rradius 31.386056953448325
rwrist 1.7460148016998884
rhand -17.976784080491917 1.0
rfingers nan
rthumb 8.369172563666519 -7.887369853189021
94
root 1.4902326942163862 17.928292510385432 54.916834179042944 -3.400458499058815 1.5990629135684762 -0.368133792028035
lfemur -7.436527481830716 -4.651754212753202 -23.767598159899492
ltibia 26.374807405621933
lfoot -8.886192528499455 -1.1587426272960415
ltoes -8.742860970154725
rfemur -15.186407414557358 -0.14957366657228732 21.134275159652702
rtibia 53.04414828750215
rfoot -6.295180788109476 -7.678215623450004
rtoes 8.078154495311717
lowerback 1.0 -0.6748824364055369 -0.36188354887854257
upperback 0.055926907815471355 -0.43203779185597524 1.2086700092454183
thorax -5.1905502632628755 -0.19158256456143002 0.995578289342805
lowerneck -15.960501588054585 -3.2896223228735995 -1.421454891702684
upperneck 22.700788064372773 -4.3845740496935415 0.6582970579284767
head 10.05983312599333 -2.056857672955306 -0.09154811253722092
lclavicle -1.8269488864226286e-15 -1.3508623839424634e-16
lhumerus -29.620873513819927 1.4226288698665877 81.93192771637652
lradius 27.726672848168224
lwrist 5.58730439702805
lhand -27.356527230088048 23.44069093982457
lfingers nan
lthumb -0.7734095085848309 53.52415306760978
rclavicle -1.8728985531511045e-15 -1.7808584559399452e-16
rhumerus -28.036601202704922 -21.68506387999877 -74.2484265267164
rradius 31.34532612582154
rwrist 1.9977415560382799
rhand -17.97402824229117 1.0
rfingers nan
rthumb 8.362386119693708 -7.86157064744355
95
root 1.519883431784242 17.92710910283136 55.97900773570712 -3.360425932099759 1.7040644554194977 0.5645850811234601
lfemur -5.057801449461615 -4.991030463744485 -24.851810275672
ltibia 26.204974282011232
lfoot -8.983981909220873 -0.29207869949674214
ltoes -8.26463197650841
rfemur -17.884658638730578 -0.5152426228794678 20.04290189631743
rtibia 55.032562400255344
rfoot -7.0466512373740935 -6.549586946536871
rtoes 7.414469393687188
lowerback 1.0 -0.9245417672367557 -1.146237489037115
upperback 0.08999661315547605 -0.8929644541378412 1.0838722872908952
thorax -5.194999200369921 -0.43142737399736275 1.3978164151562769
lowerneck -16.06170928859297 -3.246453719174908 -1.4116541674290604
upperneck 22.548044107507646 -4.305932886759848 0.710028368032541
head 10.045164282754703 -2.025960714084787 -0.06115792648745243
lclavicle -1.8325652598690986e-15 -1.374739657665612e-16
lhumerus -28.735320855155937 0.8720026242688661 81.75352539466681
lradius 28.156583648859655
lwrist 4.732156901262126
lhand -27.279238824947058 23.46992769356195
lfingers nan
lthumb -0.6657048800700855 53.59991569169236
rclavicle -1.882006416391713e-15 -1.800806003041434e-16
rhumerus -28.302846131935535 -21.521256177184945 -74.76104646157877
rradius 31.27319112443424
rwrist 2.604869590158357
rhand -17.973120785113814 1.0
rfingers nan
rthumb 8.391764596680064 -7.765522130141759
96
root 1.5469172141343681 17.926143550657258 56.92854583552511 -3.2872214167979426 1.6387306275764895 1.110601598866812
lfemur -2.776568403039259 -5.224449658693875 -25.5174567331306
ltibia 26.184337740655074
lfoot -8.142298978440783 -0.29447962978663367
ltoes -8.614269791237621
rfemur -20.61456124007913 -0.5978349507603129 19.578662705697766
rtibia 56.13773236370741
rfoot -7.652742720247043 -5.487117542982883
rtoes 6.547907094754028
lowerback 1.0 -1.179227284033352 -1.7236453445307953
upperback 0.0922210990024584 -1.3322555548297836 1.0180568782454125
thorax -5.218137786664789 -0.6495384182456115 1.8163406475551258
lowerneck -16.161690038308315 -3.1824902492271643 -1.401673658799973
upperneck 22.46188656245812 -4.185269794892888 0.7147524281704672
head 10.046531568126586 -1.9834585753942677 -0.04027170916119337
lclavicle -1.8383252873293103e-15 -1.4014601644649396e-16
lhumerus -27.893967577199234 0.41830037403734677 81.59933374683371
lradius 28.47298627394846
lwrist 4.082172871504108
lhand -27.21366964702174 23.61796039071639
lfingers nan
lthumb -0.5563582228734398 53.79860768395008
rclavicle -1.890028410657917e-15 -1.816781110762845e-16
rhumerus -28.568713959756103 -21.36263405812167 -75.18211189149557
rradius 31.161215196606015
rwrist 3.3730192683581746
rhand -17.97977450437676 1.0
rfingers nan
rthumb 8.38052926478529 -7.75829107974995
97
root 1.564882171809304 17.920933585359755 57.23992286843159 -3.269395499982462 1.2718717099485477 1.3882563445988056
lfemur -0.4107837732127031 -5.260613561184854 -25.835601668749607
ltibia 25.99447372353302
lfoot -7.080969358971211 -1.334357171396476
ltoes -8.775519058476082
rfemur -22.49372195054643 -0.4117102800534749 19.735177833912864
rtibia 55.853875881885614
rfoot -8.099877306704872 -4.621659086156934
rtoes 5.615679115409698
lowerback 1.0 -1.3717919776558654 -2.1412132628636193
upperback 0.09271773225077526 -1.6530013889489783 1.006752397909903
thorax -5.2138177544574935 -0.8032490583302199 2.2344221860254034
lowerneck -16.253561597146174 -3.1088062398742538 -1.4054706908243995
upperneck 22.469298482251972 -4.042160228481247 0.6785462419128194
head 10.067092401124574 -1.9346154228788914 -0.028102531761094257
lclavicle -1.8442340501168264e-15 -1.428806737222629e-16
lhumerus -27.132848598163655 0.019909903430158415 81.48833504502295
lradius 28.656304567144822
lwrist 3.871549917361587
lhand -27.229933734509 23.791029597696824
lfingers nan
lthumb -0.5262606198333679 54.02783713199883
rclavicle -1.89788503942724e-15 -1.8295743186959355e-16
rhumerus -28.834938862415797 -21.329194340055643 -75.56559651630796
rradius 31.00980991937123
rwrist 3.7870374744213584
rhand -17.990901347127227 1.0
rfingers nan
rthumb 8.401068286806376 -7.732016648492014
98
root 1.5708528154186805 17.90673831193467 56.58508968610799 -3.356178660734162 0.6686307266346263 1.4145600825713096
lfemur 1.9807998227425276 -5.120081288974028 -25.822448404784158
ltibia 25.608759857216548
lfoot -5.419497499166994 -2.319778289738534
ltoes -9.096697381207994
rfemur -23.43396997798269 0.058166452457497186 20.43650990432726
rtibia 54.21539950584351
rfoot -8.483534764777438 -4.0148732127321285
rtoes 4.705685277456289
lowerback 1.0 -1.492902063688701 -2.395197291245936
upperback 0.09523632755894523 -1.866855346130906 1.0668714319733952
thorax -5.158193656742224 -0.900932244265696 2.6195692755188853
lowerneck -16.312688343008215 -3.0310534758674668 -1.4377746456887643
upperneck 22.580963453962568 -3.888369934132679 0.6129938273909155
head 10.110186612508086 -1.882618496921144 -0.02177895662200835
lclavicle -1.849740149408003e-15 -1.4534109181605504e-16
lhumerus -26.4842915603748 -0.3700338014922355 81.42010217360598
lradius 28.716102301708972
lwrist 3.841267452650655
lhand -27.19989809145331 24.02560106116827
lfingers nan
lthumb -0.4467900748752426 54.320191145305735
rclavicle -1.905728373127068e-15 -1.8435544499921398e-16
rhumerus -29.108816474143318 -21.50900133063024 -75.93328809916932
rradius 30.84446088345461
rwrist 3.5507320415548724
rhand -17.999361973856285 1.0
rfingers nan
rthumb 8.37818309684552 -7.8199953680162775
99
root 1.5702551584106956 17.89099629711766 55.65503157689549 -3.4088818977979654 0.13206774259084275 0.8063922751487635
lfemur 3.8945364512290794 -4.910068447217413 -25.2049709612686
ltibia 25.472148782723302
lfoot -4.910902741321985 -3.8940742923204184
ltoes -8.34103937783905
rfemur -24.207882346410635 0.7286026206038665 21.504799664435637
rtibia 51.69733935923044
rfoot -8.94073361331976 -3.677453577208518
rtoes 3.8592968679037765
lowerback 1.0 -1.5791942717079674 -2.1556252864636756
upperback 0.07242083814232081 -1.936067007604964 1.2852322082552434
thorax -5.1223541337189396 -0.9414168658552411 2.85557204667637
lowerneck -16.326605783116268 -2.962622313555543 -1.4861854224163844
upperneck 22.774980743770225 -3.7480899443436537 0.5234888300663272
head 10.170725563155113 -1.8357674375960793 -0.025244537961537306
lclavicle -1.8535851297816783e-15 -1.4670496389145094e-16
lhumerus -25.980819306820816 -0.7668583504747595 81.38292229145071
lradius 28.656435641589475
lwrist 3.7531929263145716
lhand -27.123441960116455 24.163293151477326
lfingers nan
lthumb -0.3502696585487571 54.45871995487189
rclavicle -1.9133537506571447e-15 -1.8621699566483476e-16
rhumerus -29.40064073062786 -21.893528677147692 -76.25754450889666
rradius 30.69392777899334
rwrist 2.824910113697084
rhand -18.005589381289028 1.0
rfingers nan
rthumb 8.394950079460859 -7.853221808648281
